<?xml version="1.0" encoding="UTF-8"?>
<svg xmlns="http://www.w3.org/2000/svg" xmlns:xlink="http://www.w3.org/1999/xlink" viewBox="0 0 48 48" width="48px" height="48px">
<g id="surface17150515">
<path style=" stroke:none;fill-rule:nonzero;fill:rgb(100%,100%,100%);fill-opacity:1;" d="M 46.125 38.867188 C 45.933594 38.054688 45.644531 37.25 45.207031 36.523438 C 44.335938 35.054688 43.007812 33.9375 41.613281 33.03125 C 40.203125 32.132812 38.695312 31.410156 37.152344 30.8125 C 34.199219 29.671875 34.34375 29.710938 32.351562 29 C 27.933594 27.425781 25.484375 25.085938 25.328125 22.546875 C 25.253906 21.320312 26.453125 17.3125 31.402344 18.265625 C 32.578125 18.492188 33.691406 18.808594 34.785156 19.304688 C 35.792969 19.757812 38.738281 21.1875 39.769531 23.21875 C 39.847656 24.117188 40.164062 24.464844 41.425781 25.058594 C 42.375 25.507812 43.335938 25.996094 43.421875 27.097656 C 43.425781 27.160156 43.472656 27.207031 43.550781 27.21875 C 43.601562 27.21875 43.652344 27.1875 43.671875 27.140625 C 43.855469 26.699219 44.585938 26.148438 45.132812 26.300781 C 45.195312 26.316406 45.253906 26.289062 45.28125 26.238281 C 45.3125 26.1875 45.300781 26.121094 45.261719 26.082031 L 44.398438 25.226562 C 44.085938 24.917969 43.746094 24.507812 43.457031 23.976562 C 43.378906 23.835938 43.3125 23.695312 43.253906 23.5625 C 43.214844 23.46875 43.179688 23.375 43.140625 23.28125 C 42.414062 21.386719 41.066406 19.355469 39.675781 18.039062 C 38.917969 17.3125 38.085938 16.671875 37.199219 16.128906 C 36.308594 15.589844 35.382812 15.109375 34.367188 14.824219 L 34.292969 15.082031 C 35.238281 15.40625 36.125 15.929688 36.953125 16.5 C 37.78125 17.078125 38.546875 17.742188 39.226562 18.480469 C 40.199219 19.511719 40.964844 20.710938 41.511719 21.992188 L 39.515625 19.515625 L 39.570312 20.371094 L 37.9375 18.53125 L 38.039062 19.394531 L 36.453125 18.113281 L 36.589844 18.699219 C 36.234375 18.460938 33.066406 17.203125 31.484375 16.609375 C 29.902344 16.015625 26.777344 13.085938 27.679688 9.375 C 27.679688 9.375 26.203125 8.800781 25.144531 8.410156 C 24.101562 8.035156 23.054688 7.695312 22.003906 7.363281 C 19.90625 6.707031 17.792969 6.105469 15.671875 5.546875 C 13.546875 4.988281 11.410156 4.484375 9.261719 4.039062 C 7.109375 3.597656 4.949219 3.203125 2.761719 2.984375 L 2.722656 3.320312 C 4.875 3.648438 7 4.152344 9.109375 4.699219 C 11.21875 5.257812 13.3125 5.867188 15.386719 6.53125 C 17.464844 7.195312 19.527344 7.898438 21.566406 8.65625 C 22.582031 9.035156 23.597656 9.425781 24.59375 9.847656 C 24.804688 9.933594 25.019531 10.027344 25.234375 10.117188 C 24.007812 9.878906 22.785156 9.6875 21.558594 9.527344 C 19.347656 9.246094 17.136719 9.070312 14.921875 8.96875 C 12.707031 8.867188 10.492188 8.851562 8.277344 8.933594 C 6.066406 9.019531 3.855469 9.195312 1.675781 9.566406 L 1.71875 9.871094 C 3.898438 9.648438 6.09375 9.625 8.28125 9.6875 C 10.46875 9.757812 12.652344 9.921875 14.828125 10.164062 C 17 10.410156 19.160156 10.734375 21.296875 11.152344 C 22.613281 11.414062 23.921875 11.714844 25.199219 12.074219 C 24.1875 11.972656 23.183594 11.945312 22.183594 11.957031 C 20.207031 11.988281 18.257812 12.203125 16.335938 12.53125 C 14.414062 12.863281 12.519531 13.304688 10.660156 13.878906 C 8.8125 14.457031 6.980469 15.144531 5.300781 16.128906 L 5.417969 16.335938 C 7.136719 15.507812 8.984375 14.976562 10.84375 14.554688 C 12.703125 14.140625 14.59375 13.859375 16.488281 13.6875 C 18.378906 13.519531 20.277344 13.464844 22.148438 13.585938 C 23.8125 13.695312 25.46875 13.949219 26.980469 14.4375 C 27.046875 14.882812 27.347656 15.78125 27.492188 16.230469 C 23.234375 18.1875 22.695312 21.710938 23.046875 23.597656 C 23.453125 25.8125 25.054688 27.5 26.949219 28.59375 C 28.515625 29.484375 30.117188 30.050781 31.675781 30.640625 C 33.230469 31.222656 34.769531 31.78125 36.140625 32.558594 C 37.492188 33.304688 38.617188 34.457031 39.53125 35.765625 C 41.371094 38.40625 42.105469 41.730469 42.324219 45.011719 L 42.691406 45.003906 C 42.699219 41.679688 42.21875 38.199219 40.4375 35.191406 C 39.851562 34.203125 39.125 33.269531 38.265625 32.457031 C 39.257812 32.839844 40.226562 33.273438 41.152344 33.789062 C 42.527344 34.570312 43.820312 35.539062 44.703125 36.839844 C 45.144531 37.488281 45.457031 38.214844 45.683594 38.972656 C 45.886719 39.742188 45.980469 40.539062 46.015625 41.34375 L 46.324219 41.34375 C 46.335938 40.523438 46.289062 39.691406 46.125 38.867188 Z M 46.125 38.867188 "/>
</g>
</svg>
