<?xml version="1.0" encoding="UTF-8"?>
<svg xmlns="http://www.w3.org/2000/svg" xmlns:xlink="http://www.w3.org/1999/xlink" viewBox="0 0 96 96" width="96px" height="96px">
<g id="surface17267537">
<path style=" stroke:none;fill-rule:nonzero;fill:rgb(21.176471%,36.862746%,89.411765%);fill-opacity:1;" d="M 92.25 77.734375 C 91.867188 76.105469 91.289062 74.5 90.410156 73.042969 C 88.671875 70.113281 86.015625 67.875 83.222656 66.066406 C 80.40625 64.265625 77.390625 62.816406 74.308594 61.628906 C 68.402344 59.347656 68.6875 59.421875 64.703125 58 C 55.871094 54.851562 50.964844 50.171875 50.65625 45.097656 C 50.511719 42.636719 52.910156 34.628906 62.804688 36.53125 C 65.15625 36.984375 67.378906 37.617188 69.570312 38.605469 C 71.589844 39.519531 77.476562 42.375 79.542969 46.441406 C 79.699219 48.234375 80.328125 48.929688 82.855469 50.121094 C 84.753906 51.015625 86.667969 51.988281 86.839844 54.199219 C 86.851562 54.316406 86.941406 54.414062 87.101562 54.441406 C 87.207031 54.441406 87.300781 54.378906 87.34375 54.277344 C 87.707031 53.398438 89.175781 52.300781 90.265625 52.601562 C 90.390625 52.632812 90.503906 52.582031 90.5625 52.476562 C 90.621094 52.375 90.601562 52.246094 90.519531 52.160156 L 88.792969 50.453125 C 88.171875 49.835938 87.492188 49.011719 86.914062 47.957031 C 86.761719 47.671875 86.625 47.390625 86.507812 47.121094 C 86.433594 46.933594 86.355469 46.746094 86.28125 46.558594 C 84.832031 42.769531 82.132812 38.710938 79.351562 36.078125 C 77.839844 34.625 76.175781 33.347656 74.398438 32.253906 C 72.617188 31.179688 70.761719 30.222656 68.734375 29.648438 L 68.585938 30.160156 C 70.480469 30.816406 72.253906 31.859375 73.910156 33 C 75.566406 34.15625 77.097656 35.484375 78.457031 36.957031 C 80.398438 39.023438 81.929688 41.417969 83.019531 43.980469 L 79.035156 39.027344 L 79.144531 40.742188 L 75.878906 37.0625 L 76.078125 38.785156 L 72.90625 36.226562 L 73.179688 37.394531 C 72.464844 36.925781 66.128906 34.402344 62.96875 33.214844 C 59.804688 32.027344 53.558594 26.167969 55.359375 18.753906 C 55.359375 18.753906 52.40625 17.605469 50.289062 16.820312 C 48.203125 16.070312 46.109375 15.386719 44.011719 14.730469 C 39.808594 13.414062 35.585938 12.214844 31.339844 11.09375 C 27.09375 9.980469 22.820312 8.96875 18.523438 8.078125 C 14.222656 7.195312 9.898438 6.410156 5.523438 5.972656 L 5.445312 6.636719 C 9.75 7.300781 14 8.304688 18.21875 9.402344 C 22.433594 10.511719 26.621094 11.734375 30.777344 13.058594 C 34.929688 14.390625 39.054688 15.800781 43.128906 17.316406 C 45.164062 18.074219 47.195312 18.855469 49.183594 19.691406 C 49.605469 19.867188 50.035156 20.050781 50.464844 20.234375 C 48.019531 19.753906 45.570312 19.371094 43.121094 19.054688 C 38.699219 18.492188 34.273438 18.136719 29.84375 17.9375 C 25.414062 17.738281 20.980469 17.707031 16.558594 17.871094 C 12.136719 18.042969 7.710938 18.386719 3.347656 19.136719 L 3.433594 19.742188 C 7.792969 19.296875 12.183594 19.253906 16.558594 19.378906 C 20.9375 19.511719 25.308594 19.839844 29.652344 20.332031 C 33.996094 20.824219 38.324219 21.464844 42.59375 22.304688 C 45.222656 22.824219 47.839844 23.433594 50.398438 24.144531 C 48.375 23.945312 46.363281 23.890625 44.371094 23.914062 C 40.414062 23.976562 36.519531 24.410156 32.675781 25.0625 C 28.828125 25.722656 25.039062 26.609375 21.324219 27.757812 C 17.621094 28.914062 13.960938 30.289062 10.601562 32.253906 L 10.835938 32.671875 C 14.273438 31.015625 17.96875 29.953125 21.6875 29.113281 C 25.410156 28.285156 29.1875 27.714844 32.972656 27.375 C 36.757812 27.039062 40.558594 26.929688 44.300781 27.175781 C 47.628906 27.394531 50.933594 27.898438 53.960938 28.871094 C 54.089844 29.761719 54.691406 31.5625 54.980469 32.464844 C 46.472656 36.378906 45.394531 43.417969 46.089844 47.195312 C 46.90625 51.621094 50.113281 54.996094 53.898438 57.183594 C 57.03125 58.964844 60.234375 60.101562 63.351562 61.277344 C 66.460938 62.445312 69.539062 63.5625 72.285156 65.113281 C 74.988281 66.609375 77.234375 68.914062 79.066406 71.535156 C 82.738281 76.808594 84.210938 83.460938 84.648438 90.023438 L 85.378906 90.003906 C 85.394531 83.359375 84.441406 76.398438 80.875 70.378906 C 79.699219 68.40625 78.246094 66.539062 76.535156 64.914062 C 78.519531 65.683594 80.457031 66.550781 82.308594 67.578125 C 85.054688 69.136719 87.640625 71.078125 89.402344 73.683594 C 90.292969 74.976562 90.914062 76.433594 91.371094 77.949219 C 91.773438 79.480469 91.960938 81.078125 92.027344 82.691406 L 92.652344 82.691406 C 92.675781 81.042969 92.582031 79.378906 92.25 77.734375 Z M 92.25 77.734375 "/>
</g>
</svg>
