<?xml version="1.0" encoding="UTF-8" standalone="no"?>
<svg
   xmlns:dc="http://purl.org/dc/elements/1.1/"
   xmlns:cc="http://creativecommons.org/ns#"
   xmlns:rdf="http://www.w3.org/1999/02/22-rdf-syntax-ns#"
   xmlns:svg="http://www.w3.org/2000/svg"
   xmlns="http://www.w3.org/2000/svg"
   viewBox="0 0 613.99982 344.99991"
   id="svg14"
   height="344.99991"
   width="613.99982"
   version="1.1">
  <metadata
     id="metadata20">
    <rdf:RDF>
      <cc:Work
         rdf:about="">
        <dc:format>image/svg+xml</dc:format>
        <dc:type
           rdf:resource="http://purl.org/dc/dcmitype/StillImage" />
      </cc:Work>
    </rdf:RDF>
  </metadata>
  <defs
     id="defs18" />
  <g
     id="Layer1000">
    <path
       id="path2"
       style="fill:#102a83;fill-rule:evenodd;stroke:#102a83;stroke-width:0.21600001;stroke-linecap:butt;stroke-linejoin:miter;stroke-dasharray:none"
       d="m 177.8404,79.3195 c 0,0 81.1202,-3.7199 116.7602,14.76 0,0 -7.6799,23.2801 15.8397,28.4403 h 10.44 c 0,0 12.8401,2.7598 19.6801,6.5999 v -2.4001 c 0,0 1.9202,3.8401 7.92,5.6401 l -0.4799,-3.1201 c 0,0 5.2801,6.12 8.8801,7.4401 l -0.72,-4.2001 c 0,0 6.48,6.9602 7.92,7.8001 l 4.4399,-0.2401 c 0,0 2.9999,4.5601 4.9201,7.4401 0,0 2.6399,2.8199 0.9598,3.1201 0,0 -0.7798,0.0598 0.2401,0.9 0,0 4.7401,5.3399 11.4001,6.0599 0,0 -5.8799,4.0201 -6.3,5.04 0,0 -5.76,-6.7799 -13.2602,-10.0199 0,0 -6.0599,-2.4001 -6.2399,-5.22 l -0.1199,-3.3602 c 0,0 -24.12,-11.88 -37.0202,-14.4 0,0 -10.62,-1.3799 -16.02,0.6602 0,0 -18.9198,5.7798 -19.1596,27.3798 0,0 0.1598,23.44 24.5596,26.24 0,0 14.48,0.72 18.08,0.8799 0,0 63.4002,1.3601 73.3603,43.96 0,0 -9.2401,-28.6801 -46.6801,-34.56 0,0 36,23.5199 36,61.3202 0,0 -8.28,-60.4803 -63,-64.4403 0,0 -14.1602,-0.2398 -18.0003,-0.36 0,0 -28.1996,-0.9598 -31.0796,-28.9196 0,0 -2.6399,-26.4002 18.6001,-35.64 0,0 -9,-18.3603 -9.8402,-28.2002 0,0 -26.1601,-15.0001 -112.0802,-18.6001 z" />
  </g>
  <g
     id="Layer1001">
    <path
       id="path5"
       style="fill:#102a83;fill-rule:evenodd;stroke:#102a83;stroke-width:0.21600001;stroke-linecap:butt;stroke-linejoin:miter;stroke-dasharray:none"
       d="m 166.3204,110.7597 c 0,0 59.6401,-14.1602 122.6404,-11.16 l 1.08,4.32 c 0,0 -55.5602,-4.4402 -123.7204,6.84 z" />
  </g>
  <g
     id="Layer1002">
    <path
       id="path8"
       style="fill:#102a83;fill-rule:evenodd;stroke:#102a83;stroke-width:0.21600001;stroke-linecap:butt;stroke-linejoin:miter;stroke-dasharray:none"
       d="m 292.0806,111.8397 -1.44,-4.68 c 0,0 -50.8802,2.88 -105.8403,36.9601 0,0 57.3602,-32.2801 107.2803,-32.2801 z" />
  </g>
  <g
     id="Layer1003">
    <path
       id="path11"
       style="fill:#ffffff;fill-rule:evenodd;stroke:#ffffff;stroke-width:0.21600001;stroke-linecap:butt;stroke-linejoin:miter;stroke-dasharray:none"
       d="m 369.4205,145.8597 -0.0601,1.3201 c 0,0 1.26,1.44 2.5801,1.9199 0,0 -1.9199,-2.9401 -2.52,-3.24 z" />
  </g>
</svg>
